<svg xmlns="http://www.w3.org/2000/svg" xmlns:xlink="http://www.w3.org/1999/xlink" width="579" height="502.092" viewBox="0 0 579 502.092">
  <defs>
    <clipPath id="clip-path">
      <rect id="長方形_1" data-name="長方形 1" width="45.556" height="50.366" fill="none"/>
    </clipPath>
    <clipPath id="clip-path-2">
      <rect id="長方形_10" data-name="長方形 10" width="333.723" height="185.854" fill="none"/>
    </clipPath>
    <clipPath id="clip-img">
      <rect width="579" height="502.092"/>
    </clipPath>
  </defs>
  <g id="img" clip-path="url(#clip-img)">
    <g id="グループ_50" data-name="グループ 50" transform="translate(-39.752 -34.2)">
      <path id="パス_100" data-name="パス 100" d="M5,0H362a5,5,0,0,1,5,5V97a5,5,0,0,1-5,5H5a5,5,0,0,1-5-5V5A5,5,0,0,1,5,0Z" transform="translate(147 221)" fill="#576128"/>
      <path id="パス_101" data-name="パス 101" d="M-60.248,0V-23.12h7.922L-46.75-4.08h.34V-23.12h4.692V0h-7.718l-5.78-19.04h-.34V0Zm36.176-11.7v7.072A2.71,2.71,0,0,0-23.8-3.485a1.265,1.265,0,0,0,.85.459L-23.086.408A12.879,12.879,0,0,1-25.857.17a6.233,6.233,0,0,1-2.091-.952,11.317,11.317,0,0,1-5,1.19q-5.27,0-5.27-5.576a4.605,4.605,0,0,1,1.462-3.859,8.2,8.2,0,0,1,4.488-1.343l3.638-.272V-11.7a1.8,1.8,0,0,0-.476-1.445,2.406,2.406,0,0,0-1.53-.391l-6.392.272-.136-3.162a26.464,26.464,0,0,1,6.919-.986q3.281,0,4.726,1.36A5.739,5.739,0,0,1-24.072-11.7Zm-7.65,4.488a1.845,1.845,0,0,0-1.9,2.04q0,1.87,1.666,1.87a11.011,11.011,0,0,0,2.822-.408l.51-.136V-7.48Zm21.42-5.916h-4.182v6.97a13.926,13.926,0,0,0,.051,1.445,1.174,1.174,0,0,0,.374.731,1.416,1.416,0,0,0,1,.306l2.584-.068.2,3.638a17.31,17.31,0,0,1-3.468.51q-3.06,0-4.182-1.377T-19.04-6.052v-7.072h-2.006V-17h2.006v-4.726h4.556V-17H-10.3ZM-7.344,0V-17h4.556V0Zm0-19.176V-23.8h4.556v4.624Zm9.69,4.114q1.8-2.346,6.018-2.346t6.018,2.329a10.479,10.479,0,0,1,1.8,6.545q0,8.942-7.82,8.942T.544-8.534A10.4,10.4,0,0,1,2.346-15.062Zm3.5,10.37A2.666,2.666,0,0,0,8.364-3.468a2.627,2.627,0,0,0,2.5-1.224,8.071,8.071,0,0,0,.7-3.842,7.856,7.856,0,0,0-.7-3.808,2.65,2.65,0,0,0-2.5-1.19,2.65,2.65,0,0,0-2.5,1.19,7.856,7.856,0,0,0-.7,3.808A8.246,8.246,0,0,0,5.848-4.692ZM24.072,0H19.516V-17h4.522v.952a8.515,8.515,0,0,1,4.25-1.36q3.4,0,4.692,2.006t1.292,6.188V0H29.716V-9.078a7.646,7.646,0,0,0-.51-3.213,2.047,2.047,0,0,0-2.04-1.037,7.708,7.708,0,0,0-2.686.476l-.408.136ZM51.34-11.7v7.072a2.71,2.71,0,0,0,.272,1.139,1.265,1.265,0,0,0,.85.459L52.326.408A12.879,12.879,0,0,1,49.555.17a6.233,6.233,0,0,1-2.091-.952,11.317,11.317,0,0,1-5,1.19q-5.27,0-5.27-5.576a4.605,4.605,0,0,1,1.462-3.859,8.2,8.2,0,0,1,4.488-1.343l3.638-.272V-11.7a1.8,1.8,0,0,0-.476-1.445,2.406,2.406,0,0,0-1.53-.391l-6.392.272-.136-3.162a26.464,26.464,0,0,1,6.919-.986q3.281,0,4.726,1.36A5.739,5.739,0,0,1,51.34-11.7ZM43.69-7.208a1.845,1.845,0,0,0-1.9,2.04q0,1.87,1.666,1.87a11.011,11.011,0,0,0,2.822-.408l.51-.136V-7.48ZM55.9,0V-23.8h4.556V0ZM-24.429,34.626a30.927,30.927,0,0,1-6.494.782,12.371,12.371,0,0,1-4.624-.714,5.7,5.7,0,0,1-2.72-2.278,10.131,10.131,0,0,1-1.36-3.672A31.187,31.187,0,0,1-40,23.44q0-6.7,1.887-9.333t6.953-2.635a29.578,29.578,0,0,1,6.766.918l-.136,3.74a38.613,38.613,0,0,0-5.593-.51,6.292,6.292,0,0,0-3.179.595,3.678,3.678,0,0,0-1.411,2.261,24.159,24.159,0,0,0-.459,5.678q0,4.012.935,5.559t3.74,1.547a40.173,40.173,0,0,0,5.967-.476Zm3.6.374V11.2h4.556V35Zm9.894-15.062q1.8-2.346,6.018-2.346t6.018,2.329a10.479,10.479,0,0,1,1.8,6.545q0,8.942-7.82,8.942t-7.82-8.942A10.4,10.4,0,0,1-10.931,19.938Zm3.5,10.37a2.666,2.666,0,0,0,2.516,1.224,2.627,2.627,0,0,0,2.5-1.224,8.071,8.071,0,0,0,.7-3.842,7.856,7.856,0,0,0-.7-3.808,2.65,2.65,0,0,0-2.5-1.19,2.65,2.65,0,0,0-2.5,1.19,7.856,7.856,0,0,0-.7,3.808A8.246,8.246,0,0,0-7.429,30.308ZM16.269,18h4.556V35H16.3v-.952a9.084,9.084,0,0,1-4.25,1.36q-3.536,0-4.76-1.955T6.069,26.908V18h4.556v8.976a9.655,9.655,0,0,0,.408,3.434q.408.918,1.972.918a8.289,8.289,0,0,0,2.822-.476l.442-.136Zm23.222-6.8V35H34.969v-.714a9.965,9.965,0,0,1-4.114,1.122q-3.706,0-5.168-2.142t-1.462-6.783q0-4.641,1.751-6.766a6.453,6.453,0,0,1,5.287-2.125,18.712,18.712,0,0,1,3.026.34l.646.136V11.2ZM34.459,30.92l.476-.1V21.876a18.852,18.852,0,0,0-3.332-.34q-2.754,0-2.754,4.9a8.428,8.428,0,0,0,.612,3.774,2.124,2.124,0,0,0,2.023,1.122A11.793,11.793,0,0,0,34.459,30.92Z" transform="translate(100 58)"/>
      <path id="パス_102" data-name="パス 102" d="M-34.408-8.3v-4.08h6.732v12a51.936,51.936,0,0,1-7.888.782q-5.406,0-7.429-2.89t-2.023-9.18q0-6.29,2.108-9.078t7.174-2.788a35.941,35.941,0,0,1,6.834.714l1.224.238-.136,3.638a64.5,64.5,0,0,0-6.681-.442,7.813,7.813,0,0,0-3.655.612,3.678,3.678,0,0,0-1.547,2.261,22.231,22.231,0,0,0-.493,5.644q0,3.995.986,5.593t4.08,1.6l2.822-.136V-8.3ZM-23.46,0V-23.8H-18.9V0Zm9.894-15.062q1.8-2.346,6.018-2.346t6.018,2.329a10.479,10.479,0,0,1,1.8,6.545Q.272.408-7.548.408t-7.82-8.942A10.4,10.4,0,0,1-13.566-15.062Zm3.5,10.37A2.666,2.666,0,0,0-7.548-3.468a2.627,2.627,0,0,0,2.5-1.224,8.071,8.071,0,0,0,.7-3.842,7.856,7.856,0,0,0-.7-3.808,2.65,2.65,0,0,0-2.5-1.19,2.65,2.65,0,0,0-2.5,1.19,7.856,7.856,0,0,0-.7,3.808A8.246,8.246,0,0,0-10.064-4.692Zm21.9-12.716q3.57,0,5.219,1.955T18.7-8.466q0,5.032-1.9,6.953T10.234.408Q8.772.408,4.9.068L3.6-.068V-23.8H8.16v7.31A9.83,9.83,0,0,1,11.832-17.408Zm-1.6,13.736q2.278,0,3.06-1.1a7.239,7.239,0,0,0,.782-3.961q0-4.59-2.856-4.59a9.613,9.613,0,0,0-2.584.34l-.476.1v9.078Q9.724-3.672,10.234-3.672ZM35.122-11.7v7.072a2.71,2.71,0,0,0,.272,1.139,1.265,1.265,0,0,0,.85.459L36.108.408A12.879,12.879,0,0,1,33.337.17a6.233,6.233,0,0,1-2.091-.952,11.317,11.317,0,0,1-5,1.19q-5.27,0-5.27-5.576A4.605,4.605,0,0,1,22.44-9.027a8.2,8.2,0,0,1,4.488-1.343l3.638-.272V-11.7a1.8,1.8,0,0,0-.476-1.445,2.406,2.406,0,0,0-1.53-.391l-6.392.272-.136-3.162a26.464,26.464,0,0,1,6.919-.986q3.281,0,4.726,1.36A5.739,5.739,0,0,1,35.122-11.7Zm-7.65,4.488a1.845,1.845,0,0,0-1.9,2.04q0,1.87,1.666,1.87a11.011,11.011,0,0,0,2.822-.408l.51-.136V-7.48ZM39.678,0V-23.8h4.556V0ZM-24.429,34.626a30.927,30.927,0,0,1-6.494.782,12.371,12.371,0,0,1-4.624-.714,5.7,5.7,0,0,1-2.72-2.278,10.131,10.131,0,0,1-1.36-3.672A31.187,31.187,0,0,1-40,23.44q0-6.7,1.887-9.333t6.953-2.635a29.578,29.578,0,0,1,6.766.918l-.136,3.74a38.613,38.613,0,0,0-5.593-.51,6.292,6.292,0,0,0-3.179.595,3.678,3.678,0,0,0-1.411,2.261,24.159,24.159,0,0,0-.459,5.678q0,4.012.935,5.559t3.74,1.547a40.173,40.173,0,0,0,5.967-.476Zm3.6.374V11.2h4.556V35Zm9.894-15.062q1.8-2.346,6.018-2.346t6.018,2.329a10.479,10.479,0,0,1,1.8,6.545q0,8.942-7.82,8.942t-7.82-8.942A10.4,10.4,0,0,1-10.931,19.938Zm3.5,10.37a2.666,2.666,0,0,0,2.516,1.224,2.627,2.627,0,0,0,2.5-1.224,8.071,8.071,0,0,0,.7-3.842,7.856,7.856,0,0,0-.7-3.808,2.65,2.65,0,0,0-2.5-1.19,2.65,2.65,0,0,0-2.5,1.19,7.856,7.856,0,0,0-.7,3.808A8.246,8.246,0,0,0-7.429,30.308ZM16.269,18h4.556V35H16.3v-.952a9.084,9.084,0,0,1-4.25,1.36q-3.536,0-4.76-1.955T6.069,26.908V18h4.556v8.976a9.655,9.655,0,0,0,.408,3.434q.408.918,1.972.918a8.289,8.289,0,0,0,2.822-.476l.442-.136Zm23.222-6.8V35H34.969v-.714a9.965,9.965,0,0,1-4.114,1.122q-3.706,0-5.168-2.142t-1.462-6.783q0-4.641,1.751-6.766a6.453,6.453,0,0,1,5.287-2.125,18.712,18.712,0,0,1,3.026.34l.646.136V11.2ZM34.459,30.92l.476-.1V21.876a18.852,18.852,0,0,0-3.332-.34q-2.754,0-2.754,4.9a8.428,8.428,0,0,0,.612,3.774,2.124,2.124,0,0,0,2.023,1.122A11.793,11.793,0,0,0,34.459,30.92Z" transform="translate(322 58)"/>
      <path id="パス_103" data-name="パス 103" d="M-57.052-7.752V0h-4.692V-23.12h8.976q8.16,0,8.16,7.616a7.314,7.314,0,0,1-3.4,6.664L-44.71,0h-5.134L-52.53-7.752Zm4.352-4.012a2.987,2.987,0,0,0,2.482-1.02A4.172,4.172,0,0,0-49.4-15.47a3.873,3.873,0,0,0-.867-2.652,3.15,3.15,0,0,0-2.5-.986h-4.284v7.344Zm15.1,5.2A2.946,2.946,0,0,0-36.771-4.3a3.388,3.388,0,0,0,2.295.7q3.162,0,5.644-.2l.952-.1.068,3.366a30.171,30.171,0,0,1-7.072.952q-3.842,0-5.576-2.04t-1.734-6.63q0-9.146,7.514-9.146,7.412,0,7.412,7.684l-.34,3.162Zm5.848-3.468a4.646,4.646,0,0,0-.646-2.839,2.762,2.762,0,0,0-2.261-.8,2.753,2.753,0,0,0-2.278.833,4.707,4.707,0,0,0-.7,2.805ZM-8.6,2.108a4.724,4.724,0,0,1-2.244,4.318A11.429,11.429,0,0,1-16.915,7.82,13.567,13.567,0,0,1-22.8,6.8a3.763,3.763,0,0,1-2.057-3.706q0-2.142,2.448-4.046a2.906,2.906,0,0,1-1.258-2.584,5.143,5.143,0,0,1,1.02-2.244l.306-.476a5.669,5.669,0,0,1-2.312-4.913,5.5,5.5,0,0,1,1.955-4.709A8.45,8.45,0,0,1-17.51-17.34a12.435,12.435,0,0,1,2.89.34l.544.1,5.474-.17v3.638l-2.55-.2a4.229,4.229,0,0,1,.748,2.312q0,3.4-1.734,4.692t-5.44,1.292a6.458,6.458,0,0,1-1.394-.136,4.246,4.246,0,0,0-.34,1.445.764.764,0,0,0,.578.765,11.265,11.265,0,0,0,2.72.238q4.284.034,5.848,1.139T-8.6,2.108Zm-11.764.51q0,1.462,3.587,1.462t3.587-1.7A1.126,1.126,0,0,0-13.8,1.207,8.575,8.575,0,0,0-16.388.918L-19.448.68A2.73,2.73,0,0,0-20.366,2.618Zm.272-13.906q0,2.482,2.6,2.482t2.6-2.5q0-2.5-2.6-2.5T-20.094-11.288ZM-5.848,0V-17h4.556V0Zm0-19.176V-23.8h4.556v4.624Zm9.69,4.114q1.8-2.346,6.018-2.346t6.018,2.329a10.479,10.479,0,0,1,1.8,6.545Q17.68.408,9.86.408T2.04-8.534A10.4,10.4,0,0,1,3.842-15.062Zm3.5,10.37A2.666,2.666,0,0,0,9.86-3.468a2.627,2.627,0,0,0,2.5-1.224,8.071,8.071,0,0,0,.7-3.842,7.856,7.856,0,0,0-.7-3.808,2.65,2.65,0,0,0-2.5-1.19,2.65,2.65,0,0,0-2.5,1.19,7.856,7.856,0,0,0-.7,3.808A8.246,8.246,0,0,0,7.344-4.692ZM25.568,0H21.012V-17h4.522v.952a8.515,8.515,0,0,1,4.25-1.36q3.4,0,4.692,2.006t1.292,6.188V0H31.212V-9.078a7.646,7.646,0,0,0-.51-3.213,2.047,2.047,0,0,0-2.04-1.037,7.708,7.708,0,0,0-2.686.476l-.408.136ZM52.836-11.7v7.072a2.71,2.71,0,0,0,.272,1.139,1.265,1.265,0,0,0,.85.459L53.822.408A12.879,12.879,0,0,1,51.051.17,6.233,6.233,0,0,1,48.96-.782a11.317,11.317,0,0,1-5,1.19q-5.27,0-5.27-5.576a4.605,4.605,0,0,1,1.462-3.859,8.2,8.2,0,0,1,4.488-1.343l3.638-.272V-11.7a1.8,1.8,0,0,0-.476-1.445,2.406,2.406,0,0,0-1.53-.391l-6.392.272-.136-3.162a26.464,26.464,0,0,1,6.919-.986q3.281,0,4.726,1.36A5.739,5.739,0,0,1,52.836-11.7Zm-7.65,4.488a1.845,1.845,0,0,0-1.9,2.04q0,1.87,1.666,1.87a11.011,11.011,0,0,0,2.822-.408l.51-.136V-7.48ZM57.392,0V-23.8h4.556V0ZM-24.429,34.626a30.927,30.927,0,0,1-6.494.782,12.371,12.371,0,0,1-4.624-.714,5.7,5.7,0,0,1-2.72-2.278,10.131,10.131,0,0,1-1.36-3.672A31.187,31.187,0,0,1-40,23.44q0-6.7,1.887-9.333t6.953-2.635a29.578,29.578,0,0,1,6.766.918l-.136,3.74a38.613,38.613,0,0,0-5.593-.51,6.292,6.292,0,0,0-3.179.595,3.678,3.678,0,0,0-1.411,2.261,24.159,24.159,0,0,0-.459,5.678q0,4.012.935,5.559t3.74,1.547a40.173,40.173,0,0,0,5.967-.476Zm3.6.374V11.2h4.556V35Zm9.894-15.062q1.8-2.346,6.018-2.346t6.018,2.329a10.479,10.479,0,0,1,1.8,6.545q0,8.942-7.82,8.942t-7.82-8.942A10.4,10.4,0,0,1-10.931,19.938Zm3.5,10.37a2.666,2.666,0,0,0,2.516,1.224,2.627,2.627,0,0,0,2.5-1.224,8.071,8.071,0,0,0,.7-3.842,7.856,7.856,0,0,0-.7-3.808,2.65,2.65,0,0,0-2.5-1.19,2.65,2.65,0,0,0-2.5,1.19,7.856,7.856,0,0,0-.7,3.808A8.246,8.246,0,0,0-7.429,30.308ZM16.269,18h4.556V35H16.3v-.952a9.084,9.084,0,0,1-4.25,1.36q-3.536,0-4.76-1.955T6.069,26.908V18h4.556v8.976a9.655,9.655,0,0,0,.408,3.434q.408.918,1.972.918a8.289,8.289,0,0,0,2.822-.476l.442-.136Zm23.222-6.8V35H34.969v-.714a9.965,9.965,0,0,1-4.114,1.122q-3.706,0-5.168-2.142t-1.462-6.783q0-4.641,1.751-6.766a6.453,6.453,0,0,1,5.287-2.125,18.712,18.712,0,0,1,3.026.34l.646.136V11.2ZM34.459,30.92l.476-.1V21.876a18.852,18.852,0,0,0-3.332-.34q-2.754,0-2.754,4.9a8.428,8.428,0,0,0,.612,3.774,2.124,2.124,0,0,0,2.023,1.122A11.793,11.793,0,0,0,34.459,30.92Z" transform="translate(556 58)"/>
      <g id="グループ_46" data-name="グループ 46" transform="translate(-445.993 353.365)">
        <g id="グループ_32" data-name="グループ 32" transform="translate(769.632 27)">
          <text id="BHC" transform="translate(50.722 56)" font-size="49" font-family="TitilliumWeb-Bold, Titillium Web" font-weight="700"><tspan x="0" y="0">BHC</tspan></text>
          <g id="グループ_28" data-name="グループ 28" transform="translate(0 12.564)">
            <g id="グループ_27" data-name="グループ 27" clip-path="url(#clip-path)">
              <path id="パス_39" data-name="パス 39" d="M26.319.02l0-.018H4.34c-.17-.17.228,48.278.228,48.278h8.653L22.869,26.1A13.227,13.227,0,1,0,26.319.02" transform="translate(1.707 0)"/>
              <path id="パス_40" data-name="パス 40" d="M32.319,19.067c-.115,0-.225.014-.338.017a10.1,10.1,0,0,0-19.217,6.244A10.082,10.082,0,0,0,5.406,41.535L0,45.511H31.67c.215.011.429.034.648.034a13.238,13.238,0,0,0,0-26.477" transform="translate(0 4.822)" fill="#576128"/>
            </g>
          </g>
        </g>
      </g>
      <g id="グループ_48" data-name="グループ 48" transform="translate(166.625 350.438)">
        <g id="グループ_47" data-name="グループ 47" clip-path="url(#clip-path-2)">
          <path id="パス_89" data-name="パス 89" d="M396.013,145.826H224.727a15.968,15.968,0,0,1-15.95-15.95V15.95A15.968,15.968,0,0,1,224.727,0H396.013a15.968,15.968,0,0,1,15.95,15.95V129.876a15.968,15.968,0,0,1-15.95,15.95M224.727,8.511a7.447,7.447,0,0,0-7.439,7.439V129.876a7.447,7.447,0,0,0,7.439,7.439H396.013a7.447,7.447,0,0,0,7.439-7.439V15.95a7.447,7.447,0,0,0-7.439-7.439Z" transform="translate(-81.86)"/>
          <path id="パス_90" data-name="パス 90" d="M393.334,126.737H247.614a13.08,13.08,0,0,1-13.065-13.065V38.411a13.08,13.08,0,0,1,13.065-13.064h145.72A13.08,13.08,0,0,1,406.4,38.411v75.26a13.08,13.08,0,0,1-13.065,13.065M247.614,33.858a4.559,4.559,0,0,0-4.554,4.554v75.26a4.56,4.56,0,0,0,4.554,4.554h145.72a4.56,4.56,0,0,0,4.554-4.554V38.411a4.559,4.559,0,0,0-4.554-4.554Z" transform="translate(-91.966 -9.938)"/>
          <path id="パス_91" data-name="パス 91" d="M395.442,287.045h-8.511v-7.273H333.322v7.273h-8.511v-8.29a7.5,7.5,0,0,1,7.494-7.494h55.643a7.5,7.5,0,0,1,7.494,7.494Z" transform="translate(-127.357 -106.36)"/>
          <rect id="長方形_7" data-name="長方形 7" width="8.511" height="28.336" transform="translate(209.525 143.802)"/>
          <rect id="長方形_8" data-name="長方形 8" width="8.511" height="28.336" transform="translate(246.929 143.802)"/>
          <rect id="長方形_9" data-name="長方形 9" width="333.723" height="8.511" transform="translate(0 177.343)"/>
          <path id="パス_92" data-name="パス 92" d="M77.723,108.506a45.526,45.526,0,1,1,45.526-45.525,45.577,45.577,0,0,1-45.526,45.525m0-82.541a37.015,37.015,0,1,0,37.015,37.015A37.058,37.058,0,0,0,77.723,25.966" transform="translate(-12.624 -6.844)"/>
          <path id="パス_93" data-name="パス 93" d="M139.1,88.285a7.565,7.565,0,1,1,7.565-7.565,7.573,7.573,0,0,1-7.565,7.565m0-6.619" transform="translate(-51.575 -28.684)"/>
          <path id="パス_94" data-name="パス 94" d="M50.558,240.9l-8.511-.088c.546-52.923,25.1-85.011,26.14-86.351l6.712,5.232-3.356-2.616,3.36,2.612C74.665,160,51.073,191,50.558,240.9" transform="translate(-16.486 -60.564)"/>
          <path id="パス_95" data-name="パス 95" d="M199.492,240.569h-8.511V225.1a8.643,8.643,0,0,0-8.633-8.633h-15a17.528,17.528,0,0,1-17.331-14.616c-4.342-25.518-20.252-43.311-20.413-43.487l6.3-5.728A102.5,102.5,0,0,1,158.4,200.425a9.039,9.039,0,0,0,8.941,7.534h15A17.164,17.164,0,0,1,199.492,225.1Z" transform="translate(-50.816 -59.849)"/>
          <path id="パス_96" data-name="パス 96" d="M161.125,266.5H138.43A34.873,34.873,0,0,1,103.6,231.668V206.587h8.511v25.081a26.353,26.353,0,0,0,26.323,26.323h22.695Z" transform="translate(-40.62 -81.002)"/>
        </g>
      </g>
      <path id="パス_97" data-name="パス 97" d="M1388.763,2583.962h-7v-54.344H1231.5v-58.9h7v51.9h150.263Z" transform="translate(-1135 -2344.937)" fill="#576128"/>
      <path id="パス_99" data-name="パス 99" d="M1238.5,2583.962h-7v-61.344h150.263v-51.9h7v58.9H1238.5Z" transform="translate(-829.263 -2344.937)" fill="#576128"/>
      <path id="パス_98" data-name="パス 98" d="M1476.986,2572.769h-7V2470.713h7Z" transform="translate(-1146 -2344.937)" fill="#576128"/>
      <path id="パス_104" data-name="パス 104" d="M15,0,30,26H0Z" transform="translate(85 106)" fill="#576128"/>
      <path id="パス_105" data-name="パス 105" d="M15,0,30,26H0Z" transform="translate(312 106)" fill="#576128"/>
      <path id="パス_106" data-name="パス 106" d="M15,0,30,26H0Z" transform="translate(541 106)" fill="#576128"/>
      <path id="パス_107" data-name="パス 107" d="M-73.125,0V-17h3.45V0Zm7.15,0V-17h5.825l4.1,14h.25V-17h3.45V0h-5.675l-4.25-14h-.25V0Zm15.8-13.95V-17h12.5v3.05h-4.5V0h-3.45V-13.95ZM-35.5,0V-17h11v3h-7.55v3.975H-26v2.95h-6.05V-3h7.55V0Zm20.775-6.1v-3h4.95V-.275a38.188,38.188,0,0,1-5.8.575q-3.975,0-5.463-2.125t-1.487-6.75q0-4.625,1.55-6.675T-15.7-17.3a26.428,26.428,0,0,1,5.025.525l.9.175-.1,2.675a47.422,47.422,0,0,0-4.912-.325,5.745,5.745,0,0,0-2.688.45,2.7,2.7,0,0,0-1.137,1.662,16.346,16.346,0,0,0-.363,4.15,8.368,8.368,0,0,0,.725,4.113q.725,1.175,3,1.175l2.075-.1V-6.1Zm11.65.4V0h-3.45V-17h6.6q6,0,6,5.6a5.378,5.378,0,0,1-2.5,4.9L6,0H2.225L.25-5.7Zm3.2-2.95A2.2,2.2,0,0,0,1.95-9.4a3.067,3.067,0,0,0,.6-1.975,2.848,2.848,0,0,0-.637-1.95A2.317,2.317,0,0,0,.075-14.05h-3.15v5.4ZM7.35,0l3.825-17h6.55L21.55,0H18.1l-.675-3.075h-5.95L10.8,0Zm6.5-14.15L12.125-6.075h4.65L15.05-14.15Zm7.525.2V-17h12.5v3.05h-4.5V0h-3.45V-13.95ZM36.05,0V-17H39.5V0ZM46.725-4A2.925,2.925,0,0,0,49.5-2.7a2.886,2.886,0,0,0,2.762-1.313A9.561,9.561,0,0,0,53-8.412a10.011,10.011,0,0,0-.75-4.488,2.837,2.837,0,0,0-2.75-1.4,2.837,2.837,0,0,0-2.75,1.4A10.011,10.011,0,0,0,46-8.412,9.791,9.791,0,0,0,46.725-4ZM54.95-1.8Q53.375.3,49.5.3T44.037-1.812Q42.45-3.925,42.45-8.425t1.588-6.687Q45.625-17.3,49.5-17.3t5.462,2.187q1.588,2.187,1.588,6.687T54.95-1.8ZM59.5,0V-17h5.825l4.1,14h.25V-17h3.45V0H67.45L63.2-14h-.25V0Z" transform="translate(327 254)" fill="#d2d5c0"/>
      <path id="パス_108" data-name="パス 108" d="M-145.26-34.32q-6.54,0-6.54,4.32a3.272,3.272,0,0,0,1.62,2.94,42.082,42.082,0,0,0,7.59,2.94q5.97,1.92,8.37,4.35t2.4,7.47q0,6.42-3.9,9.72t-10.2,3.3A56.76,56.76,0,0,1-157.38-.72l-2.16-.42.84-6.42a99.887,99.887,0,0,0,12.3,1.08q6.36,0,6.36-5.28a3.513,3.513,0,0,0-1.47-3,20.8,20.8,0,0,0-5.85-2.34q-6.96-1.98-9.81-4.71a10.013,10.013,0,0,1-2.85-7.59q0-6.12,3.72-9.12t10.2-3a67.771,67.771,0,0,1,11.28,1.2l2.16.42-.66,6.54Q-141.78-34.32-145.26-34.32Zm16.8.84V-40.8h30v7.32h-10.8V0h-8.28V-33.48ZM-98.52,0l9.18-40.8h15.72L-64.44,0h-8.28l-1.62-7.38H-88.62L-90.24,0Zm15.6-33.96-4.14,19.38H-75.9l-4.14-19.38ZM-58.62,0V-40.8h13.98L-34.8-7.2h.6V-40.8h8.28V0H-39.54l-10.2-33.6h-.6V0ZM-2.94,0H-16.68V-40.8H-2.94a28.676,28.676,0,0,1,8.7,1.11,10.37,10.37,0,0,1,5.31,3.66,15.117,15.117,0,0,1,2.61,6,45.382,45.382,0,0,1,.72,8.97,52.548,52.548,0,0,1-.66,9.15,17.726,17.726,0,0,1-2.49,6.48A10.372,10.372,0,0,1,5.94-1.29,25.891,25.891,0,0,1-2.94,0Zm8.7-16.2q.12-1.92.12-5.31a48.631,48.631,0,0,0-.24-5.43A10.365,10.365,0,0,0,4.5-30.66a4.742,4.742,0,0,0-2.67-2.31,14.629,14.629,0,0,0-4.77-.63H-8.4V-7.2h5.46q4.5,0,6.54-2.28Q5.34-11.34,5.76-16.2ZM17.94,0l9.18-40.8H42.84L52.02,0H43.74L42.12-7.38H27.84L26.22,0Zm15.6-33.96L29.4-14.58H40.56L36.42-33.96ZM66.12-13.68V0H57.84V-40.8H73.68q14.4,0,14.4,13.44,0,7.98-6,11.76L87.9,0H78.84L74.1-13.68Zm7.68-7.08a5.271,5.271,0,0,0,4.38-1.8,7.362,7.362,0,0,0,1.44-4.74,6.834,6.834,0,0,0-1.53-4.68,5.56,5.56,0,0,0-4.41-1.74H66.12v12.96ZM109.14,0H95.4V-40.8h13.74a28.676,28.676,0,0,1,8.7,1.11,10.37,10.37,0,0,1,5.31,3.66,15.118,15.118,0,0,1,2.61,6,45.382,45.382,0,0,1,.72,8.97,52.548,52.548,0,0,1-.66,9.15,17.726,17.726,0,0,1-2.49,6.48,10.372,10.372,0,0,1-5.31,4.14A25.891,25.891,0,0,1,109.14,0Zm8.7-16.2q.12-1.92.12-5.31a48.632,48.632,0,0,0-.24-5.43,10.365,10.365,0,0,0-1.14-3.72,4.742,4.742,0,0,0-2.67-2.31,14.629,14.629,0,0,0-4.77-.63h-5.46V-7.2h5.46q4.5,0,6.54-2.28Q117.42-11.34,117.84-16.2Zm28.74-18.12q-6.54,0-6.54,4.32a3.272,3.272,0,0,0,1.62,2.94,42.082,42.082,0,0,0,7.59,2.94q5.97,1.92,8.37,4.35t2.4,7.47q0,6.42-3.9,9.72T145.92.72A56.76,56.76,0,0,1,134.46-.72l-2.16-.42.84-6.42a99.887,99.887,0,0,0,12.3,1.08q6.36,0,6.36-5.28a3.513,3.513,0,0,0-1.47-3,20.8,20.8,0,0,0-5.85-2.34q-6.96-1.98-9.81-4.71a10.013,10.013,0,0,1-2.85-7.59q0-6.12,3.72-9.12t10.2-3a67.771,67.771,0,0,1,11.28,1.2l2.16.42-.66,6.54Q150.06-34.32,146.58-34.32Z" transform="translate(331 306)" fill="#fff"/>
    </g>
  </g>
</svg>
